<?xml version="1.0" encoding="UTF-8" standalone="no"?>
<svg
   width="270"
   height="70"
   version="1.1"
   xml:space="preserve"
   id="svg68"
   sodipodi:docname="head-logo.svg"
   inkscape:version="1.2.1 (9c6d41e410, 2022-07-14)"
   xmlns:inkscape="http://www.inkscape.org/namespaces/inkscape"
   xmlns:sodipodi="http://sodipodi.sourceforge.net/DTD/sodipodi-0.dtd"
   xmlns="http://www.w3.org/2000/svg"
   xmlns:svg="http://www.w3.org/2000/svg"><defs
   id="defs72" /><sodipodi:namedview
   id="namedview70"
   pagecolor="#ffffff"
   bordercolor="#000000"
   borderopacity="0.25"
   inkscape:showpageshadow="2"
   inkscape:pageopacity="0.0"
   inkscape:pagecheckerboard="0"
   inkscape:deskcolor="#d1d1d1"
   showgrid="false"
   inkscape:zoom="5.5888889"
   inkscape:cx="135.08946"
   inkscape:cy="35.069583"
   inkscape:window-width="1920"
   inkscape:window-height="974"
   inkscape:window-x="-11"
   inkscape:window-y="-11"
   inkscape:window-maximized="1"
   inkscape:current-layer="svg_12" />
 <desc
   id="desc38">Created with Fabric.js 3.6.6</desc>

 <g
   class="layer"
   id="g66">
  <title
   id="title40">Layer 1</title>
  <g
   id="svg_14">
   <g
   id="svg_1"
   transform="matrix(1 0 0 1 233.32 134.06)">
    <g
   id="svg_2">
     <g
   id="Path_1"
   transform="matrix(1 0 0 1 22.41 -2.34)">
      <path
   d="m14.5,-89.8l0,-21.79l-8.48,0l0,-1.42l18.44,0l0,1.42l-8.44,0l0,21.79l-1.52,0z"
   fill="rgb(34,34,34)"
   fill-rule="nonzero"
   id="svg_3"
   stroke-dashoffset="0"
   stroke-miterlimit="4"
   transform="translate(-148.24 -14.6)" />
     </g>
     <g
   id="Path_2"
   transform="matrix(1 0 0 1 37.79 0.58)">
      <path
   d="m30.72,-88.1l0,-17.31l1.31,0l0,3.15l0.17,0a4.62,4.62 0 0 1 4.66,-3.19c3.48,0 4.79,2.43 4.79,5.34l0,1.11l-1.51,0l0,-0.98c0,-2.97 -1.14,-4.08 -3.62,-4.08c-2.8,0 -4.28,1.49 -4.28,4.95l0,11.02l-1.51,0l-0.01,-0.01z"
   fill="rgb(34,34,34)"
   fill-rule="nonzero"
   id="svg_4"
   stroke-dashoffset="0"
   stroke-miterlimit="4"
   transform="translate(-169.19 -19.23)" />
     </g>
     <g
   id="Path_3"
   transform="matrix(1 0 0 1 51.42 0.77)">
      <path
   d="m46.6,-92.15c0,-3.08 2.42,-4.3 6.14,-4.74l6,-0.8l0,-1.24c0,-3.54 -1.58,-5.13 -4.97,-5.13s-5.1,1.49 -5.1,4.78l0,0.28l-1.51,0l0,-0.24c0,-3.33 2.52,-6.2 6.69,-6.2c4.41,0 6.34,2.9 6.34,6.47l0,10.88l-1.34,0l0,-3.7l-0.17,-0.03a7.02,7.02 0 0 1 -6.62,4.08c-3.28,0 -5.45,-1.56 -5.45,-4.4l-0.01,-0.01zm5.76,3.05a6.02,6.02 0 0 0 6.38,-6.44l0,-0.9l-6.1,0.83c-3.1,0.38 -4.52,1.18 -4.52,3.36s1.48,3.15 4.24,3.15z"
   fill="rgb(34,34,34)"
   fill-rule="nonzero"
   id="svg_5"
   stroke-dashoffset="0"
   stroke-miterlimit="4"
   transform="translate(-186.4 -19.41)" />
     </g>
     <g
   id="Path_4"
   transform="matrix(1 0 0 1 68.89 -2.17)">
      <path
   d="m68.23,-98.32c0,-5.37 2.65,-8.84 7.34,-8.84a6.35,6.35 0 0 1 6.17,4.09l0,-9.94l1.52,0l0,23.21l-1.35,0l0,-3.88l-0.1,0a6.11,6.11 0 0 1 -6.2,4.23c-4.72,0 -7.38,-3.47 -7.38,-8.87zm7.52,7.48c3.41,0 6,-2.04 6,-6.06l0,-2.84c0,-3.98 -2.59,-6.03 -5.94,-6.03s-6.06,1.49 -6.06,7.45s2.79,7.48 6,7.48z"
   fill="rgb(34,34,34)"
   fill-rule="nonzero"
   id="svg_6"
   stroke-dashoffset="0"
   stroke-miterlimit="4"
   transform="translate(-208.75 -14.78)" />
     </g>
     <g
   id="Path_5"
   transform="matrix(1 0 0 1 87.08 0.75)">
      <path
   d="m91.82,-96.62c0,-5.06 2.93,-8.83 7.61,-8.83c3.73,0 7.24,2.28 7.24,7.65a8.09,8.09 0 0 1 -0.17,1.77l-13.2,0c0.14,4.19 2.04,6.85 6.24,6.85c3.62,0 5.48,-1.97 5.48,-4.4l0,-0.21l1.51,0l0,0.21c0,3.16 -2.89,5.82 -7,5.82c-4.93,0 -7.72,-3.78 -7.72,-8.87l0.01,0.01zm1.48,-0.66l11.9,0c0.17,-4.95 -2.35,-6.82 -5.76,-6.82c-4.07,0 -6,2.7 -6.13,6.82l-0.01,0z"
   fill="rgb(34,34,34)"
   fill-rule="nonzero"
   id="svg_7"
   stroke-dashoffset="0"
   stroke-miterlimit="4"
   transform="translate(-232.24 -19.39)" />
     </g>
     <g
   id="Path_6"
   transform="matrix(1 0 0 1 0.03 -2.32)">
      <path
   d="m-7.29,-96.85a6.83,6.83 0 1 1 -0.15,-9.27l3.31,-3.42a11.56,11.56 0 1 0 -8.2,19.73a11.47,11.47 0 0 0 8.46,-3.73l-3.41,-3.31l-0.01,0z"
   fill="rgb(34,34,34)"
   fill-rule="nonzero"
   id="svg_8"
   stroke-dashoffset="0"
   stroke-miterlimit="4"
   transform="translate(-119.13 -14.63)" />
     </g>
     <g
   id="Path_7"
   transform="matrix(1 0 0 1 -21.55 -2.31)">
      <path
   d="m-48.69,-113.01l5.85,21.11l1.26,0l5.87,-21.11l5.09,0l-5.25,19.27a5.53,5.53 0 0 1 -5.3,4l-2.07,0a5.53,5.53 0 0 1 -5.31,-4.01l-5.23,-19.26l5.09,0z"
   fill="rgb(34,34,34)"
   fill-rule="nonzero"
   id="svg_9"
   stroke-dashoffset="0"
   stroke-miterlimit="4"
   transform="translate(-90.8 -14.63)" />
     </g>
     <g
   id="Path_8"
   transform="matrix(1 0 0 1 -54.66 -2.92)">
      <path
   d="m-98.71,-116l21.98,6.03a6.36,6.36 0 0 1 4.58,6.11l0,2.38a6.36,6.36 0 0 1 -4.57,6.12l-21.99,6.05l0,-5.86l24.1,-6.78l0,-1.45l-24.1,-6.73l0,-5.87z"
   fill="rgb(38,140,103)"
   fill-rule="nonzero"
   id="svg_10"
   stroke-dashoffset="0"
   stroke-miterlimit="4"
   transform="translate(-47.57 -13.35)" />
     </g>
     <g
   id="Path_9"
   transform="matrix(1 0 0 1 -81.22 2.92)">
      <path
   d="m-106.44,-81.77l-21.98,-6.02a6.36,6.36 0 0 1 -4.58,-6.12l0,-2.38a6.36,6.36 0 0 1 4.58,-6.11l21.98,-6.06l0,5.87l-24.1,6.77l0,1.45l24.1,6.74l0,5.86z"
   fill="rgb(38,140,103)"
   fill-rule="nonzero"
   id="svg_11"
   stroke-dashoffset="0"
   stroke-miterlimit="4"
   transform="translate(-13.28 -20.89)" />
     </g>
    </g>
   </g>
   <g
   id="Trade_with_confidence"
   transform="matrix(1 0 0 1 264.35 172.72)">
    <g
   aria-label="      Trade with confidence    "
   id="svg_12"
   style="font-size:28px;font-family:ClashGrotesk-Regular, 'Clash Grotesk';fill:#268c67"><path
     d="m -249.46201,-107.2 v -16.94 h 6.664 v -1.82 h -15.288 v 1.82 h 6.636 v 16.94 z"
     id="path909" /><path
     d="m -240.24998,-107.2 v -9.156 c 0,-2.24 0.896,-3.22 3.052,-3.22 1.988,0 2.66,0.84 2.66,2.996 v 0.476 h 2.016 v -0.784 c 0,-2.38 -1.092,-4.424 -3.948,-4.424 -2.044,0 -3.388,1.148 -3.836,2.436 h -0.14 v -2.324 h -1.82 v 14 z"
     id="path911" /><path
     d="m -227.03397,-106.92 c 2.632,0 4.396,-1.26 5.208,-2.856 l 0.14,0.028 v 2.548 h 1.82 v -8.652 c 0,-3.08 -1.68,-5.46 -5.376,-5.46 -3.584,0 -5.796,2.296 -5.796,5.18 v 0.224 h 1.932 v -0.42 c 0,-2.212 1.176,-3.192 3.696,-3.192 2.604,0 3.64,0.98 3.64,3.416 v 1.008 l -4.872,0.672 c -3.024,0.42 -4.816,1.484 -4.816,3.892 0,2.324 1.904,3.612 4.424,3.612 z m -2.464,-3.752 c 0,-1.484 0.812,-1.932 3.024,-2.24 l 4.704,-0.672 v 0.476 c 0,3.276 -2.324,4.508 -4.704,4.508 -2.128,0 -3.024,-0.644 -3.024,-2.072 z"
     id="path913" /><path
     d="m -211.326,-106.92 c 2.604,0 4.228,-1.204 4.844,-2.94 h 0.112 v 2.66 h 1.792 v -18.76 h -2.016 v 7.56 c -0.588,-1.512 -2.296,-2.912 -4.956,-2.912 -3.78,0 -5.852,2.828 -5.852,7.196 0,4.368 2.184,7.196 6.076,7.196 z m -4.06,-7.196 c 0,-4.228 1.68,-5.46 4.396,-5.46 2.744,0 4.396,1.428 4.396,4.284 v 2.38 c 0,2.828 -1.652,4.256 -4.396,4.256 -2.744,0 -4.396,-1.232 -4.396,-5.46 z"
     id="path915" /><path
     d="m -195.64602,-106.92 c 3.528,0 5.936,-2.044 5.936,-4.704 v -0.196 h -1.988 v 0.168 c 0,1.68 -1.12,2.94 -3.92,2.94 -3.304,0 -4.508,-1.792 -4.592,-4.844 h 10.472 c 0.084,-0.392 0.14,-1.008 0.14,-1.652 0,-4.088 -2.744,-6.104 -6.076,-6.104 -3.948,0 -6.44,2.996 -6.44,7.196 0,4.2 2.212,7.196 6.468,7.196 z m -0.084,-12.656 c 2.716,0 4.34,1.288 4.228,4.564 h -8.708 c 0.168,-2.8 1.4,-4.564 4.48,-4.564 z"
     id="path917" /><path
     d="m -176.71803,-107.2 3.136,-8.736 1.036,-3.276 h 0.168 l 1.036,3.276 3.108,8.736 h 2.632 l 3.556,-13.832 h -2.072 l -2.184,9.016 -0.56,2.996 h -0.168 l -0.868,-2.996 -3.22,-9.016 h -2.66 l -3.164,9.016 -0.924,2.996 h -0.168 l -0.56,-2.996 -2.184,-9.016 h -2.128 l 3.556,13.832 z"
     id="path919" /><path
     d="m -158.49004,-122.88 v -3.08 h -1.988 v 3.08 z m 0,15.68 v -14 h -1.988 v 14 z"
     id="path921" /><path
     d="m -150.42605,-107.172 c 1.008,0 1.876,-0.14 2.352,-0.224 v -1.624 h -1.82 c -1.792,0 -2.548,-0.364 -2.548,-1.988 v -8.288 h 4.368 v -1.736 h -4.368 v -3.528 h -1.512 l -0.476,3.528 h -2.352 v 1.736 h 2.324 v 8.176 c 0,2.94 1.484,3.948 4.032,3.948 z"
     id="path923" /><path
     d="m -143.95805,-107.2 v -7.952 c 0,-3.108 1.456,-4.396 4.228,-4.396 2.8,0 3.808,1.316 3.808,4.312 v 8.036 h 1.988 v -8.54 c 0,-3.164 -1.54,-5.572 -5.152,-5.572 -2.8,0 -4.228,1.54 -4.76,2.856 h -0.112 v -7.504 h -2.016 v 18.76 z"
     id="path925" /><path
     d="m -119.51408,-106.892 c 3.528,0 5.908,-2.268 5.908,-5.516 v -0.196 h -1.988 v 0.168 c 0,2.408 -1.288,3.724 -4.004,3.724 -3.164,0 -4.48,-1.988 -4.48,-5.376 0,-3.416 1.316,-5.404 4.48,-5.404 2.716,0 4.004,1.316 4.004,3.724 v 0.168 h 1.988 v -0.196 c 0,-3.248 -2.38,-5.516 -5.908,-5.516 -4.088,0 -6.552,2.996 -6.552,7.224 0,4.2 2.464,7.196 6.552,7.196 z"
     id="path927" /><path
     d="m -104.8421,-106.92 c 4.032,0 6.608001,-2.996 6.608001,-7.196 0,-4.2 -2.576001,-7.196 -6.608001,-7.196 -4.06,0 -6.72,2.996 -6.72,7.196 0,4.2 2.66,7.196 6.72,7.196 z m 0,-1.792 c -3.388,0 -4.732,-1.96 -4.732,-5.404 0,-3.444 1.344,-5.376 4.732,-5.376 3.332,0 4.648,1.932 4.648,5.376 0,3.444 -1.316,5.404 -4.648,5.404 z"
     id="path929" /><path
     d="m -93.782058,-107.2 v -7.98 c 0,-3.08 1.484,-4.368 4.228,-4.368 2.828,0 3.808,1.316 3.808,4.312 v 8.036 h 1.988 v -8.484 c 0,-3.332 -1.624,-5.628 -5.18,-5.628 -2.856,0 -4.424,1.68 -4.956,3.136 h -0.084 v -2.856 h -1.82 v 13.832 z"
     id="path931" /><path
     d="m -78.242047,-107.2 v -12.096 h 3.892 v -1.736 h -3.92 v -1.204 c 0,-1.4 0.728,-2.072 2.324,-2.072 h 1.596 v -1.652 h -1.232 c -3.052,0 -4.648,1.54 -4.648,4.396 v 0.532 h -2.044 v 1.736 h 2.044 v 12.096 z m 7.364,-15.68 v -3.08 h -1.988 v 3.08 z m 0,15.68 v -14 h -1.988 v 14 z"
     id="path933" /><path
     d="m -62.450027,-106.92 c 2.604,0 4.228,-1.204 4.844,-2.94 h 0.112 v 2.66 h 1.792 v -18.76 h -2.016 v 7.56 c -0.588,-1.512 -2.296,-2.912 -4.956,-2.912 -3.78,0 -5.852,2.828 -5.852,7.196 0,4.368 2.184,7.196 6.076,7.196 z m -4.06,-7.196 c 0,-4.228 1.68,-5.46 4.396,-5.46 2.744,0 4.396,1.428 4.396,4.284 v 2.38 c 0,2.828 -1.652,4.256 -4.396,4.256 -2.744,0 -4.396,-1.232 -4.396,-5.46 z"
     id="path935" /><path
     d="m -46.770033,-106.92 c 3.528,0 5.936,-2.044 5.936,-4.704 v -0.196 h -1.988 v 0.168 c 0,1.68 -1.12,2.94 -3.92,2.94 -3.304,0 -4.508,-1.792 -4.592,-4.844 h 10.472 c 0.084,-0.392 0.14,-1.008 0.14,-1.652 0,-4.088 -2.744,-6.104 -6.076,-6.104 -3.948,0 -6.44,2.996 -6.44,7.196 0,4.2 2.212,7.196 6.468,7.196 z m -0.084,-12.656 c 2.716,0 4.34,1.288 4.228,4.564 h -8.708 c 0.168,-2.8 1.4,-4.564 4.48,-4.564 z"
     id="path937" /><path
     d="m -36.130005,-107.2 v -7.98 c 0,-3.08 1.484,-4.368 4.228,-4.368 2.828,0 3.808,1.316 3.808,4.312 v 8.036 h 1.988 v -8.484 c 0,-3.332 -1.624,-5.628 -5.18,-5.628 -2.856,0 -4.424,1.68 -4.956,3.136 h -0.084 v -2.856 h -1.82 v 13.832 z"
     id="path939" /><path
     d="m -17.11804,-106.892 c 3.528,0 5.908,-2.268 5.908,-5.516 v -0.196 h -1.988 v 0.168 c 0,2.408 -1.288,3.724 -4.004,3.724 -3.164,0 -4.48,-1.988 -4.48,-5.376 0,-3.416 1.316,-5.404 4.48,-5.404 2.716,0 4.004,1.316 4.004,3.724 v 0.168 h 1.988 v -0.196 c 0,-3.248 -2.38,-5.516 -5.908,-5.516 -4.088,0 -6.552,2.996 -6.552,7.224 0,4.2 2.464,7.196 6.552,7.196 z"
     id="path941" /><path
     d="m -2.6980417,-106.92 c 3.52799995,0 5.936,-2.044 5.936,-4.704 v -0.196 h -1.988 v 0.168 c 0,1.68 -1.12000005,2.94 -3.92,2.94 -3.304,0 -4.508,-1.792 -4.592,-4.844 h 10.472 c 0.084,-0.392 0.14,-1.008 0.14,-1.652 0,-4.088 -2.74400005,-6.104 -6.076,-6.104 -3.948,0 -6.44,2.996 -6.44,7.196 0,4.2 2.212,7.196 6.468,7.196 z m -0.084,-12.656 c 2.71599995,0 4.34,1.288 4.228,4.564 h -8.708 c 0.168,-2.8 1.4,-4.564 4.48,-4.564 z"
     id="path943" /></g>
   </g>
  </g>
 </g>
</svg>
